<svg height="512pt" viewBox="-38 0 511 512" width="512pt" xmlns="http://www.w3.org/2000/svg" xmlns:xlink="http://www.w3.org/1999/xlink"><linearGradient id="a" gradientUnits="userSpaceOnUse" x1=".500119" x2="436.500119" y1="256" y2="256"><stop offset="0" stop-color="#80d8ff"/><stop offset="1" stop-color="#ea80fc"/></linearGradient><path d="m436.398438 489.988281-38-376c-1.035157-10.214843-9.632813-17.988281-19.898438-17.988281h-64c0-52.933594-43.066406-96-96-96s-96 43.066406-96 96h-64c-10.265625 0-18.863281 7.773438-19.898438 17.988281l-38 376c-1.1875 11.785157 8.074219 22.011719 19.898438 22.011719h396c11.84375 0 21.085938-10.242188 19.898438-22.011719zm-217.898438-449.988281c30.878906 0 56 25.121094 56 56h-112c0-30.878906 25.121094-56 56-56zm-175.875 432 33.957031-336h45.917969v40c0 11.046875 8.957031 20 20 20 11.046875 0 20-8.953125 20-20v-40h112v40c0 11.046875 8.953125 20 20 20s20-8.953125 20-20v-40h45.921875l33.957031 336zm0 0" fill="url(#a)"/></svg>